<svg width="312" height="40" viewBox="0 0 312 40" fill="none" xmlns="http://www.w3.org/2000/svg">
<path d="M35.144 39H27.416L26.84 25.992C26.68 22.888 26.6 20.12 26.6 17.688C26.6 15.832 26.648 14.072 26.744 12.408L21.608 35.496H14.168L8.696 12.408C8.888 15.192 8.984 17.816 8.984 20.28C8.984 22.136 8.936 24.072 8.84 26.088L8.264 39H0.584L3.08 5.73602H13.016L18.008 28.296L22.664 5.73602H32.648L35.144 39Z" fill="#141414"/>
<path d="M59.9664 31.608C59.9664 32.568 60.0944 33.272 60.3504 33.72C60.6384 34.168 61.0864 34.504 61.6944 34.728L60.1104 39.672C58.5424 39.544 57.2624 39.208 56.2704 38.664C55.2784 38.088 54.5104 37.192 53.9664 35.976C52.3024 38.536 49.7424 39.816 46.2864 39.816C43.7584 39.816 41.7424 39.08 40.2384 37.608C38.7344 36.136 37.9824 34.216 37.9824 31.848C37.9824 29.064 39.0064 26.936 41.0544 25.464C43.1024 23.992 46.0624 23.256 49.9344 23.256H52.5264V22.152C52.5264 20.648 52.2064 19.624 51.5664 19.08C50.9264 18.504 49.8064 18.216 48.2064 18.216C47.3744 18.216 46.3664 18.344 45.1824 18.6C43.9984 18.824 42.7824 19.144 41.5344 19.56L39.8064 14.568C41.4064 13.96 43.0384 13.496 44.7024 13.176C46.3984 12.856 47.9664 12.696 49.4064 12.696C53.0544 12.696 55.7264 13.448 57.4224 14.952C59.1184 16.456 59.9664 18.712 59.9664 21.72V31.608ZM48.4944 34.392C50.2224 34.392 51.5664 33.576 52.5264 31.944V27.432H50.6544C48.9264 27.432 47.6304 27.736 46.7664 28.344C45.9344 28.952 45.5184 29.896 45.5184 31.176C45.5184 32.2 45.7744 33 46.2864 33.576C46.8304 34.12 47.5664 34.392 48.4944 34.392Z" fill="#141414"/>
<path d="M79.8313 12.792C80.7593 12.792 81.6073 12.904 82.3753 13.128L81.1752 20.472C80.2152 20.248 79.4473 20.136 78.8713 20.136C77.3673 20.136 76.2153 20.664 75.4153 21.72C74.6473 22.744 74.0392 24.296 73.5912 26.376V39H66.0072V13.512H72.6312L73.2552 18.456C73.8312 16.696 74.6953 15.32 75.8473 14.328C77.0313 13.304 78.3593 12.792 79.8313 12.792Z" fill="#141414"/>
<path d="M92.8569 13.512V39H85.2729V13.512H92.8569ZM89.0169 0.0720215C90.3289 0.0720215 91.4009 0.488022 92.2329 1.32002C93.0969 2.12002 93.5289 3.14402 93.5289 4.39202C93.5289 5.64002 93.0969 6.68002 92.2329 7.51202C91.4009 8.31202 90.3289 8.71202 89.0169 8.71202C87.7049 8.71202 86.6329 8.31202 85.8009 7.51202C84.9689 6.68002 84.5529 5.64002 84.5529 4.39202C84.5529 3.14402 84.9689 2.12002 85.8009 1.32002C86.6329 0.488022 87.7049 0.0720215 89.0169 0.0720215Z" fill="#141414"/>
<path d="M119.076 31.608C119.076 32.568 119.204 33.272 119.46 33.72C119.748 34.168 120.196 34.504 120.804 34.728L119.22 39.672C117.652 39.544 116.372 39.208 115.38 38.664C114.388 38.088 113.62 37.192 113.076 35.976C111.412 38.536 108.852 39.816 105.396 39.816C102.868 39.816 100.852 39.08 99.3477 37.608C97.8437 36.136 97.0918 34.216 97.0918 31.848C97.0918 29.064 98.1157 26.936 100.164 25.464C102.212 23.992 105.172 23.256 109.044 23.256H111.636V22.152C111.636 20.648 111.316 19.624 110.676 19.08C110.036 18.504 108.916 18.216 107.316 18.216C106.484 18.216 105.476 18.344 104.292 18.6C103.108 18.824 101.892 19.144 100.644 19.56L98.9157 14.568C100.516 13.96 102.148 13.496 103.812 13.176C105.508 12.856 107.076 12.696 108.516 12.696C112.164 12.696 114.836 13.448 116.532 14.952C118.228 16.456 119.076 18.712 119.076 21.72V31.608ZM107.604 34.392C109.332 34.392 110.676 33.576 111.636 31.944V27.432H109.764C108.036 27.432 106.74 27.736 105.876 28.344C105.044 28.952 104.628 29.896 104.628 31.176C104.628 32.2 104.884 33 105.396 33.576C105.94 34.12 106.676 34.392 107.604 34.392Z" fill="#141414"/>
<path d="M157.051 5.73602L156.235 11.352H144.523V19.32H154.747V24.84H144.523V33.336H157.051V39H136.651V5.73602H157.051Z" fill="#141414"/>
<path d="M183.683 3.38402V39H176.963L176.579 36.024C174.787 38.552 172.371 39.816 169.331 39.816C166.163 39.816 163.747 38.6 162.083 36.168C160.451 33.736 159.635 30.408 159.635 26.184C159.635 23.592 160.067 21.272 160.931 19.224C161.795 17.176 163.011 15.576 164.579 14.424C166.179 13.272 168.003 12.696 170.051 12.696C172.483 12.696 174.499 13.496 176.099 15.096V2.56802L183.683 3.38402ZM171.683 34.248C173.443 34.248 174.915 33.288 176.099 31.368V20.376C175.491 19.64 174.867 19.096 174.227 18.744C173.619 18.392 172.915 18.216 172.115 18.216C170.707 18.216 169.587 18.872 168.755 20.184C167.923 21.496 167.507 23.512 167.507 26.232C167.507 29.208 167.859 31.288 168.563 32.472C169.299 33.656 170.339 34.248 171.683 34.248Z" fill="#141414"/>
<path d="M211.121 39H204.545L204.209 35.784C202.353 38.472 199.777 39.816 196.481 39.816C194.145 39.816 192.369 39.112 191.153 37.704C189.969 36.296 189.377 34.328 189.377 31.8V13.512H196.961V30.84C196.961 32.088 197.153 32.968 197.537 33.48C197.953 33.96 198.577 34.2 199.409 34.2C201.009 34.2 202.385 33.208 203.537 31.224V13.512H211.121V39Z" fill="#141414"/>
<path d="M237.341 31.608C237.341 32.568 237.469 33.272 237.725 33.72C238.013 34.168 238.461 34.504 239.069 34.728L237.485 39.672C235.917 39.544 234.637 39.208 233.645 38.664C232.653 38.088 231.885 37.192 231.341 35.976C229.677 38.536 227.117 39.816 223.661 39.816C221.133 39.816 219.117 39.08 217.613 37.608C216.109 36.136 215.357 34.216 215.357 31.848C215.357 29.064 216.381 26.936 218.429 25.464C220.477 23.992 223.437 23.256 227.309 23.256H229.901V22.152C229.901 20.648 229.581 19.624 228.941 19.08C228.301 18.504 227.181 18.216 225.581 18.216C224.749 18.216 223.741 18.344 222.557 18.6C221.373 18.824 220.157 19.144 218.909 19.56L217.181 14.568C218.781 13.96 220.413 13.496 222.077 13.176C223.773 12.856 225.341 12.696 226.781 12.696C230.429 12.696 233.101 13.448 234.797 14.952C236.493 16.456 237.341 18.712 237.341 21.72V31.608ZM225.869 34.392C227.597 34.392 228.941 33.576 229.901 31.944V27.432H228.029C226.301 27.432 225.005 27.736 224.141 28.344C223.309 28.952 222.893 29.896 222.893 31.176C222.893 32.2 223.149 33 223.661 33.576C224.205 34.12 224.941 34.392 225.869 34.392Z" fill="#141414"/>
<path d="M257.206 12.792C258.134 12.792 258.982 12.904 259.75 13.128L258.55 20.472C257.59 20.248 256.822 20.136 256.246 20.136C254.742 20.136 253.59 20.664 252.79 21.72C252.022 22.744 251.414 24.296 250.966 26.376V39H243.382V13.512H250.006L250.63 18.456C251.206 16.696 252.07 15.32 253.222 14.328C254.406 13.304 255.734 12.792 257.206 12.792Z" fill="#141414"/>
<path d="M284.043 3.38402V39H277.323L276.939 36.024C275.147 38.552 272.731 39.816 269.691 39.816C266.523 39.816 264.107 38.6 262.443 36.168C260.811 33.736 259.995 30.408 259.995 26.184C259.995 23.592 260.427 21.272 261.291 19.224C262.155 17.176 263.371 15.576 264.939 14.424C266.539 13.272 268.363 12.696 270.411 12.696C272.843 12.696 274.859 13.496 276.459 15.096V2.56802L284.043 3.38402ZM272.043 34.248C273.803 34.248 275.275 33.288 276.459 31.368V20.376C275.851 19.64 275.227 19.096 274.587 18.744C273.979 18.392 273.275 18.216 272.475 18.216C271.067 18.216 269.947 18.872 269.115 20.184C268.283 21.496 267.867 23.512 267.867 26.232C267.867 29.208 268.219 31.288 268.923 32.472C269.659 33.656 270.699 34.248 272.043 34.248Z" fill="#141414"/>
<path d="M310.232 31.608C310.232 32.568 310.36 33.272 310.616 33.72C310.904 34.168 311.352 34.504 311.96 34.728L310.376 39.672C308.808 39.544 307.528 39.208 306.536 38.664C305.544 38.088 304.776 37.192 304.232 35.976C302.568 38.536 300.008 39.816 296.552 39.816C294.024 39.816 292.008 39.08 290.504 37.608C289 36.136 288.248 34.216 288.248 31.848C288.248 29.064 289.272 26.936 291.32 25.464C293.368 23.992 296.328 23.256 300.2 23.256H302.792V22.152C302.792 20.648 302.472 19.624 301.832 19.08C301.192 18.504 300.072 18.216 298.472 18.216C297.64 18.216 296.632 18.344 295.448 18.6C294.264 18.824 293.048 19.144 291.8 19.56L290.072 14.568C291.672 13.96 293.304 13.496 294.968 13.176C296.664 12.856 298.232 12.696 299.672 12.696C303.32 12.696 305.992 13.448 307.688 14.952C309.384 16.456 310.232 18.712 310.232 21.72V31.608ZM298.76 34.392C300.488 34.392 301.832 33.576 302.792 31.944V27.432H300.92C299.192 27.432 297.896 27.736 297.032 28.344C296.2 28.952 295.784 29.896 295.784 31.176C295.784 32.2 296.04 33 296.552 33.576C297.096 34.12 297.832 34.392 298.76 34.392Z" fill="#141414"/>
</svg>
